Coordinates
version=1
nRows=32
nColumns=22
inDegrees=yes

Units are S.I. units (second, meters, Newtons, ...)
If the header above contains a line with 'inDegrees', this indicates whether rotational values are in degrees (yes) or radians (no).

endheader
time	pelvis_tilt	pelvis_list	pelvis_rotation	pelvis_tx	pelvis_ty	pelvis_tz	hip_flexion_r	hip_adduction_r	hip_rotation_r	knee_angle_r	ankle_angle_r	subtalar_angle_r	hip_flexion_l	hip_adduction_l	hip_rotation_l	knee_angle_l	ankle_angle_l	subtalar_angle_l	lumbar_extension	lumbar_bending	lumbar_rotation
      2.66000000	     -0.98366838	     -1.63812074	    -29.09139784	     -0.33492699	      0.90672647	      0.00653105	     -5.40282386	      8.29839531	      8.34311161	    -17.39929370	     14.60665692	     -7.41770921	     22.16811789	    -13.69732430	    -10.44124773	    -11.75313359	      5.00792602	      6.81655956	     -6.50466649	      0.24624914	      6.97552821
      2.67000000	     -1.12272434	     -1.80554169	    -29.62174695	     -0.32598552	      0.90444396	      0.00899587	     -5.94281998	      8.24900011	      8.77338729	    -17.57743212	     15.15922611	     -7.18004783	     22.27679718	    -13.66347406	    -10.30512423	     -9.33057225	      4.68579515	      8.54406388	     -6.48791036	      0.55286112	      7.01329374
      2.68000000	     -1.23436110	     -1.98637847	    -30.14788943	     -0.31700192	      0.90217803	      0.01150294	     -6.49801073	      8.18921226	      9.17157944	    -17.79596160	     15.67352960	     -6.94172615	     22.41316009	    -13.64695753	    -10.06941890	     -7.37745405	      4.36009398	     10.18380529	     -6.52506000	      0.84565875	      7.02863410
      2.69000000	     -1.31104050	     -2.18161492	    -30.66858619	     -0.30798522	      0.89998558	      0.01408198	     -7.08874972	      8.11788017	      9.54896580	    -18.02868486	     16.14875455	     -6.70498857	     22.58675578	    -13.65784633	     -9.76766407	     -5.96415967	      4.06874530	     11.63926976	     -6.62299645	      1.11472687	      7.04312709
      2.70000000	     -1.34671334	     -2.37591778	    -31.19712887	     -0.29894756	      0.89790425	      0.01674757	     -7.70372034	      8.01764185	      9.91653136	    -18.29223050	     16.57665056	     -6.47843833	     22.80480375	    -13.68908995	     -9.42755020	     -5.13942100	      3.86401856	     12.79310426	     -6.77918551	      1.33832502	      7.06392210
      2.71000000	     -1.34101085	     -2.55913822	    -31.73149397	     -0.28988708	      0.89596563	      0.01950393	     -8.33793781	      7.88336484	     10.29508153	    -18.58520920	     16.95100019	     -6.26085329	     23.07206597	    -13.72881376	     -9.09558685	     -4.90944281	      3.73642308	     13.60258384	     -6.98249260	      1.50415257	      7.09140644
      2.72000000	     -1.30187617	     -2.70889390	    -32.27854816	     -0.28079557	      0.89415949	      0.02233830	     -8.95942835	      7.69732238	     10.68323857	    -18.92963943	     17.28026924	     -6.07459692	     23.39346076	    -13.75784330	     -8.73031936	     -5.25012296	      3.72528792	     13.97189275	     -7.21188953	      1.59521634	      7.14366311
      2.73000000	     -1.22546766	     -2.83116914	    -32.84398841	     -0.27167381	      0.89252244	      0.02524530	     -9.56414311	      7.46381499	     11.08107880	    -19.34337154	     17.52712616	     -5.88069292	     23.74345167	    -13.77255847	     -8.36511965	     -6.09793514	      3.68000077	     14.03579384	     -7.47150391	      1.61897139	      7.19820760
      2.74000000	     -1.13316182	     -2.91172771	    -33.44796579	     -0.26247546	      0.89101264	      0.02823507	    -10.13004219	      7.17868895	     11.53468063	    -19.81998273	     17.73159738	     -5.68972536	     24.10553426	    -13.76418341	     -7.94082573	     -7.35134929	      3.67584808	     13.77377412	     -7.71984062	      1.57818947	      7.29292944
      2.75000000	     -1.05679005	     -2.92759624	    -34.08924926	     -0.25320609	      0.88959433	      0.03131435	    -10.58955697	      6.84431997	     12.00999738	    -20.40608720	     17.83305714	     -5.42149789	     24.49464253	    -13.71574052	     -7.44911574	     -8.89783173	      3.56851671	     13.04268502	     -7.90349675	      1.46831186	      7.40427852
      2.76000000	     -0.98408887	     -2.88482987	    -34.76947915	     -0.24380118	      0.88827827	      0.03444842	    -10.96292930	      6.45197163	     12.49355652	    -21.08538036	     17.87244327	     -5.16666946	     24.86512400	    -13.61082754	     -6.87402469	    -10.62873347	      3.37639547	     12.12514314	     -8.03344210	      1.30196879	      7.54690625
      2.77000000	     -0.92971490	     -2.76488351	    -35.50122432	     -0.23426387	      0.88704713	      0.03766640	    -11.21495933	      5.99991954	     13.01955832	    -21.87804852	     17.83812587	     -4.88133417	     25.21434612	    -13.43836846	     -6.25331731	    -12.44006529	      3.06727399	     11.06467018	     -8.07627141	      1.07110070	      7.69779482
      2.78000000	     -0.88687820	     -2.56780142	    -36.22688136	     -0.22452967	      0.88591700	      0.04086989	    -11.32659253	      5.48566158	     13.42525042	    -22.81321563	     17.65099976	     -4.54171399	     25.53985125	    -13.15938700	     -5.53443029	    -14.24275139	      2.58468090	      9.88378971	     -8.03717571	      0.78686389	      7.81145350
      2.79000000	     -0.85968976	     -2.28868917	    -36.98764580	     -0.21462662	      0.88489590	      0.04418317	    -11.30164565	      4.91625416	     13.83248567	    -23.87392747	     17.32363686	     -4.17404222	     25.83143036	    -12.80244985	     -4.84065923	    -15.98816612	      2.00812949	      8.73265355	     -7.89815521	      0.43518719	      7.90915788
      2.80000000	     -0.83848862	     -1.94981014	    -37.73746364	     -0.20449178	      0.88401065	      0.04755551	    -11.16339382	      4.30496655	     14.13726307	    -25.04235277	     16.80567623	     -3.77374883	     26.10649017	    -12.37074190	     -4.19376968	    -17.68398817	      1.36852624	      7.62125605	     -7.67895831	      0.04428249	      7.97741873
      2.81000000	     -0.80883560	     -1.56332960	    -38.47754490	     -0.19414840	      0.88329999	      0.05102562	    -10.91278664	      3.66298566	     14.34923998	    -26.34684157	     16.05028108	     -3.37580044	     26.33966722	    -11.88171754	     -3.64863976	    -19.29561338	      0.73241794	      6.62266905	     -7.40272513	     -0.38610642	      7.98319698
      2.82000000	     -0.74942187	     -1.14042931	    -39.20038808	     -0.18361112	      0.88279827	      0.05462232	    -10.56140919	      2.98997297	     14.43258295	    -27.80307152	     15.06240481	     -3.02425857	     26.51138270	    -11.34365700	     -3.23957386	    -20.81528930	      0.13983090	      5.79014870	     -7.09615085	     -0.86607130	      7.93942265
      2.83000000	     -0.66490534	     -0.71573705	    -39.88690438	     -0.17287798	      0.88251689	      0.05834604	    -10.12946597	      2.32098518	     14.38138027	    -29.39437931	     13.77949999	     -2.71067081	     26.63742900	    -10.79740054	     -3.00555545	    -22.28914600	     -0.29218745	      5.04396928	     -6.77934695	     -1.35699203	      7.81408856
      2.84000000	     -0.51702306	     -0.29302123	    -40.55154976	     -0.16198850	      0.88251620	      0.06220772	     -9.63093566	      1.62987413	     14.19027029	    -31.14467884	     12.23170772	     -2.52539480	     26.65270667	    -10.22904157	     -2.94566685	    -23.66802624	     -0.58623657	      4.49783031	     -6.49515927	     -1.88535470	      7.64040773
      2.85000000	     -0.32764960	      0.10713068	    -41.18375007	     -0.15098676	      0.88275868	      0.06620032	     -9.04875651	      0.94963045	     13.85721410	    -33.06139535	     10.41148686	     -2.43824365	     26.58969480	     -9.67768099	     -3.08842046	    -24.99658543	     -0.63613475	      4.01050528	     -6.24223754	     -2.41717564	      7.37770730
      2.86000000	     -0.05923930	      0.47228131	    -41.80606405	     -0.13994500	      0.88331455	      0.07031050	     -8.39966797	      0.25275345	     13.38572007	    -35.16055642	      8.34356184	     -2.51316696	     26.36958528	     -9.12229023	     -3.37273654	    -26.20856926	     -0.52869672	      3.70634074	     -6.07245262	     -2.97510811	      7.11096066
      2.87000000	      0.25593325	      0.81593885	    -42.41211872	     -0.12890222	      0.88410059	      0.07451982	     -7.64359381	     -0.44827001	     12.80830493	    -37.43984316	      6.09052094	     -2.71723081	     26.04162678	     -8.57668988	     -3.83521628	    -27.32367140	     -0.19954547	      3.43142826	     -5.94791940	     -3.54135492	      6.75821342
      2.88000000	      0.62352734	      1.12351531	    -43.01538384	     -0.11793571	      0.88513507	      0.07880778	     -6.78871281	     -1.15144078	     12.15902932	    -39.88898994	      3.69377481	     -3.03829121	     25.57164898	     -8.03732449	     -4.41082384	    -28.30218811	      0.29228187	      3.23149555	     -5.89280235	     -4.11140850	      6.36983238
      2.89000000	      1.02637373	      1.40579405	    -43.62812684	     -0.10711686	      0.88637816	      0.08314179	     -5.80795382	     -1.85395535	     11.49050093	    -42.50170289	      1.23417156	     -3.42539853	     24.96538302	     -7.50082494	     -5.07913013	    -29.10429693	      0.89692825	      3.08651791	     -5.89057209	     -4.67827323	      5.94265929
      2.90000000	      1.44930574	      1.66058002	    -44.25741807	     -0.09653330	      0.88778759	      0.08750205	     -4.70074644	     -2.53194722	     10.86202584	    -45.24484571	     -1.18156984	     -3.81801748	     24.24795526	     -6.97187169	     -5.80841054	    -29.74654819	      1.57853147	      2.97341174	     -5.93544769	     -5.23356586	      5.49621994
      2.91000000	      1.86732799	      1.88933582	    -44.91569206	     -0.08625822	      0.88931703	      0.09186798	     -3.45400045	     -3.15655679	     10.33433566	    -48.09045552	     -3.47098752	     -4.14348854	     23.43194152	     -6.46501492	     -6.58787660	    -30.19944629	      2.30124759	      2.88501249	     -6.01156075	     -5.75567973	      5.02088640
      2.92000000	      2.26094462	      2.09410328	    -45.61450014	     -0.07636229	      0.89092370	      0.09623262	     -2.06674943	     -3.69480792	      9.95551163	    -50.99614335	     -5.53746372	     -4.34727997	     22.54339743	     -5.99133867	     -7.40959348	    -30.47354005	      3.03350308	      2.80543794	     -6.10493268	     -6.23380907	      4.52626294
      2.93000000	      2.60987465	      2.27220359	    -46.36388890	     -0.06690511	      0.89256613	      0.10059281	     -0.54163572	     -4.10946282	      9.75093980	    -53.91759410	     -7.31639917	     -4.38226294	     21.60439198	     -5.56767440	     -8.26539947	    -30.57719837	      3.74853471	      2.72607640	     -6.20440288	     -6.65141461	      4.02841418
      2.94000000	      2.89811730	      2.41484353	    -47.16699716	     -0.05792580	      0.89421716	      0.10494967	      1.10407044	     -4.36127649	      9.72225023	    -56.80166646	     -8.77337244	     -4.22960435	     20.63432294	     -5.21198970	     -9.14619372	    -30.53255397	      4.42787671	      2.64626908	     -6.30641189	     -6.99102565	      3.54019874
      2.95000000	      3.11520565	      2.51083441	    -48.01806379	     -0.04942341	      0.89586958	      0.10932390	      2.83739431	     -4.41805462	      9.84386374	    -59.58728741	     -9.90354190	     -3.92229920	     19.63964415	     -4.93825349	    -10.04425812	    -30.35559841	      5.06777934	      2.56989139	     -6.41139272	     -7.23794418	      3.05931164
      2.96000000	      3.23982582	      2.56475846	    -48.88031228	     -0.04135524	      0.89745833	      0.11365555	      4.64981878	     -4.27142217	     10.03356524	    -62.23042773	    -10.69856106	     -3.35119175	     18.67589573	     -4.74837416	    -10.91180022	    -30.10954987	      5.70735273	      2.44491036	     -6.50705985	     -7.37194702	      2.56419293
      2.97000000	      3.32652850	      2.52913409	    -49.79346345	     -0.03371283	      0.89913563	      0.11808964	      6.42242781	     -3.92333032	     10.29237401	    -64.65268720	    -11.20983569	     -3.00544623	     17.62285626	     -4.65263160	    -11.83627450	    -29.74429547	      6.24945994	      2.40110859	     -6.66180559	     -7.41421120	      2.08839132
